<?xml version="1.0" standalone="no"?>
<svg xmlns="http://www.w3.org/2000/svg" xmlns:xlink="http://www.w3.org/1999/xlink" version="1.1" id="designs" width="128" height="128" viewBox="0 0 32 32" xml:space="preserve">
<style type="text/css">
	.sketchy_een{fill:#111918;}
</style>
<path class="sketchy_een" d="M25.888,22.96c-0.048-1.458-0.112-2.913-0.137-4.371c-0.011-0.766-0.042-1.53-0.051-2.297  c-0.009-0.779-0.006-1.559-0.015-2.336c-0.008-0.741-0.027-1.483-0.03-2.224c-0.002-0.759,0.013-1.517,0.036-2.274  c0.019-0.65,0.036-1.3,0.036-1.951c0.002-0.721,0.011-1.437,0.057-2.158c0.021-0.345-0.232-0.638-0.545-0.751  c-0.122-0.099-0.268-0.167-0.432-0.158c-0.594,0.036-1.191,0-1.786-0.016c-0.006-0.479,0-0.958-0.007-1.436  c-0.008-0.428-0.354-0.785-0.785-0.785c-0.418,0-0.795,0.357-0.783,0.785c0.013,0.469,0.028,0.94,0.055,1.41  c-0.305-0.005-0.609-0.006-0.915-0.013c-0.205-0.005-0.41-0.004-0.616-0.006c-0.037-0.458-0.064-0.917-0.1-1.376  c-0.019-0.213-0.074-0.399-0.23-0.555c-0.148-0.146-0.348-0.23-0.557-0.23c-0.207,0-0.409,0.084-0.555,0.23  c-0.135,0.135-0.247,0.357-0.23,0.555c0.043,0.458,0.097,0.913,0.155,1.368c-0.517,0.002-1.033,0.004-1.55,0.007  c-0.005-0.217-0.002-0.434,0.004-0.652c0.008-0.312,0.023-0.625,0.036-0.937C16.964,2.361,16.569,2,16.154,2  c-0.439,0-0.779,0.361-0.791,0.791c-0.013,0.536,0.025,1.072,0.028,1.608c-0.504,0.009-1.007,0.014-1.511,0.026  c0.019-0.487,0.059-0.973,0.089-1.457c0.027-0.433-0.382-0.797-0.797-0.797c-0.449,0-0.774,0.363-0.795,0.797  c-0.024,0.492-0.041,0.988-0.032,1.482c-0.114,0.001-0.228,0.005-0.342,0.005c-0.314,0-0.628-0.01-0.942-0.012  c-0.004-0.182-0.008-0.365-0.004-0.548c0.008-0.331,0.015-0.664,0.029-0.994c0.015-0.439-0.378-0.804-0.804-0.804  c-0.443,0-0.799,0.365-0.804,0.804C9.474,3.22,9.48,3.54,9.49,3.859c0.007,0.188,0.015,0.376,0.024,0.564  C8.892,4.414,8.27,4.414,7.649,4.4C7.491,4.396,7.333,4.396,7.175,4.394C6.944,4.393,6.742,4.51,6.603,4.681  c-0.323,0.1-0.571,0.394-0.568,0.746c0.008,0.77,0.059,1.54,0.059,2.31c-0.002,0.762-0.049,1.525-0.051,2.287  c-0.004,1.5-0.042,3-0.008,4.5c0.017,0.774,0.057,1.546,0.067,2.319c0.008,0.745,0.034,1.487,0.076,2.23  c0.087,1.519,0.15,3.04,0.15,4.561c0,0.519-0.006,1.038-0.004,1.557c0,0.466,0.044,0.932,0.032,1.395  c-0.003,0.109,0.02,0.213,0.062,0.309c0,0.007-0.004,0.012-0.004,0.019c0,0.426,0.361,0.804,0.795,0.795  c0.105-0.002,0.21-0.008,0.314-0.012c0.029,0.274,0.06,0.548,0.066,0.823c0.006,0.245,0.006,0.492,0.072,0.732  c0.093,0.34,0.344,0.606,0.688,0.702c0.253,0.068,0.546,0.042,0.806,0.038c0.397-0.008,0.797-0.019,1.194-0.027  c0.755-0.015,1.51-0.006,2.264-0.021c0.762-0.015,1.523-0.036,2.285-0.034c0.751,0.002,1.502,0.013,2.253,0.006  c0.764-0.008,1.53-0.015,2.295-0.025c0.73-0.008,1.46-0.019,2.19-0.023c0.194,0,0.388,0,0.584,0.002  c0.464,0.002,0.93,0.004,1.393-0.023c0.105-0.008,0.211-0.013,0.318-0.023c0.253-0.025,0.458-0.072,0.654-0.253  c0.171-0.158,0.266-0.376,0.329-0.597c0.115-0.412,0.024-0.806-0.005-1.215c0.065,0.017,0.129,0.039,0.196,0.039  c0.203,0,0.401-0.082,0.544-0.224c0.158-0.158,0.202-0.333,0.226-0.546c0.032-0.283,0.046-0.572,0.068-0.857  c0.025-0.325,0.042-0.652,0.034-0.979C25.961,24.447,25.915,23.704,25.888,22.96z M9.405,5.85c0.749-0.008,1.498-0.025,2.247-0.03  c1.433-0.013,2.865-0.048,4.298-0.067c1.414-0.017,2.831-0.021,4.247,0.002c0.717,0.013,1.435,0.036,2.154,0.048  c0.606,0.01,1.211,0.039,1.817,0.062c-0.001,0.626,0.026,1.252,0.032,1.879c0.008,0.755,0.011,1.51,0.004,2.264  c-0.008,0.738-0.019,1.473-0.019,2.211c0,0.757,0.03,1.513,0.038,2.27c0.008,0.787,0,1.574-0.011,2.361  c-0.009,0.774,0.019,1.546,0.036,2.319c0.015,0.721,0.053,1.441,0.068,2.162c0.015,0.705-0.004,1.409,0.032,2.114  c0.032,0.665,0.065,1.325,0.059,1.99c-0.003,0.239-0.006,0.48-0.013,0.72c-0.516,0.014-1.031,0.026-1.547,0.026  c-0.762,0.002-1.525,0.013-2.285,0.019c-0.759,0.006-1.517,0.011-2.276,0.021c-0.785,0.011-1.572,0.036-2.359,0.044  c-0.749,0.008-1.498,0.006-2.247-0.011c-0.726-0.019-1.452-0.046-2.179-0.051c-1.203-0.011-2.406-0.061-3.609-0.074  c-0.046-0.602-0.04-1.208-0.046-1.809c-0.01-0.76-0.03-1.519-0.053-2.278c-0.023-0.759-0.04-1.519-0.08-2.278  c-0.04-0.743-0.11-1.483-0.133-2.228c-0.025-0.779-0.021-1.559-0.046-2.338c-0.023-0.755-0.019-1.51-0.017-2.264  c0.004-1.5-0.015-2.998,0.063-4.496c0.025-0.481,0.019-0.962,0.017-1.443C7.598,6.626,7.607,6.257,7.614,5.888  C8.211,5.877,8.808,5.856,9.405,5.85z M21.912,28.362c-0.726,0.006-1.454,0.025-2.181,0.044c-1.502,0.038-3.006,0.091-4.51,0.106  c-0.544,0.004-1.089,0.006-1.633,0.017c-0.517,0.01-1.032,0.034-1.549,0.042c-0.557,0.006-1.112-0.004-1.669-0.015  c-0.401-0.008-0.807-0.014-1.208-0.044c-0.018-0.282-0.031-0.565-0.052-0.847c0.161,0.003,0.322,0,0.482,0.003  c0.768,0.017,1.536,0.004,2.304-0.002c0.804-0.004,1.606,0.03,2.411,0.034c0.806,0.004,1.612,0.004,2.416-0.015  c1.413-0.034,2.825-0.027,4.238-0.008c0.679,0.008,1.359,0.013,2.038,0.013c0.116,0,0.233,0,0.35-0.001  c0,0.007-0.005,0.014-0.004,0.021c0.017,0.185,0.046,0.368,0.076,0.551c0.002,0.024,0.003,0.048,0.004,0.071  C22.923,28.364,22.416,28.358,21.912,28.362z M12.188,13.238c0-0.449,0.361-0.772,0.793-0.793c0.829-0.041,1.66-0.05,2.49-0.05  c0.297,0,0.594,0.001,0.891,0.003c0.536,0.002,1.072,0.009,1.606,0.017c0.466,0.008,0.93-0.011,1.393-0.015  c0.435-0.002,0.797,0.365,0.797,0.798c0,0.409-0.363,0.831-0.797,0.797c-0.471-0.036-0.949-0.034-1.422-0.04  c-0.536-0.008-1.07-0.036-1.605-0.048c-0.51-0.011-1.023-0.019-1.532,0.004c-0.606,0.027-1.213,0.084-1.821,0.122  C12.549,14.059,12.188,13.651,12.188,13.238z M12.188,16.026c0-0.414,0.346-0.757,0.76-0.759c0.591-0.004,1.182,0.021,1.776,0.023  c0.538,0.002,1.078,0.004,1.616-0.01c0.559-0.011,1.116-0.019,1.675-0.036c0.266-0.008,0.532-0.011,0.798-0.019  c0.259-0.01,0.513-0.042,0.772-0.055c0.012-0.001,0.023-0.001,0.035-0.001c0.41,0,0.746,0.385,0.746,0.782  c0,0.205-0.084,0.405-0.23,0.551c-0.135,0.135-0.356,0.247-0.551,0.228c-0.266-0.025-0.534-0.008-0.8-0.004  c-0.266,0.006-0.532,0.01-0.798,0.011c-0.549,0.008-1.099,0.013-1.646,0.006c-0.549-0.008-1.097-0.011-1.646-0.008  c-0.582,0.004-1.164,0.034-1.745,0.048C12.534,16.794,12.188,16.431,12.188,16.026z M12.105,18.822c0-0.437,0.369-0.812,0.81-0.808  c1.177,0.009,2.356,0.059,3.532,0.078c0.568,0.008,1.137-0.002,1.703-0.03c0.476-0.022,0.95-0.049,1.425-0.049  c0.057,0,0.113,0,0.17,0.001c0.43,0.006,0.789,0.354,0.789,0.787c0,0.414-0.359,0.812-0.789,0.789c-0.529-0.027-1.067,0-1.595,0.023  c-0.568,0.023-1.133,0.032-1.703,0.019c-0.595-0.013-1.188-0.042-1.785-0.036c-0.584,0.004-1.165,0.03-1.747,0.036  C12.474,19.635,12.105,19.261,12.105,18.822z"/>
</svg>