<?xml version="1.0" encoding="utf-8"?><svg version="1.1" id="Layer_1" xmlns="http://www.w3.org/2000/svg" xmlns:xlink="http://www.w3.org/1999/xlink" x="0px" y="0px" viewBox="0 0 122.88 116.38" style="enable-background:new 0 0 122.88 116.38" xml:space="preserve"><style type="text/css">.st0{fill-rule:evenodd;clip-rule:evenodd;}</style><g><path class="st0" d="M44.59,81.2c6.76,14.1,27.27,14.6,33.74,0.08c-1.77-1.79-3.08-3.7-4.38-5.61c-0.21-0.31-0.43-0.62-0.64-0.94 c-3.13,2.48-6.92,4.06-11.86,4.05c-5.33-0.01-9.35-2.05-12.64-5.06c-0.2-0.18-0.39-0.36-0.58-0.55c-0.47,1.31-1.07,2.88-1.71,4.34 C45.9,78.93,45.23,80.25,44.59,81.2L44.59,81.2z M80.24,79.72c7.22,5.1,24.78,6.33,31.52,10.09c2.24,1.25,4.26,2.84,5.89,4.99 c3.39,4.48,10.33,20.74-0.92,21.6H6.17c-11.25-0.86-4.32-17.12-0.92-21.6c1.63-2.15,3.65-3.74,5.89-4.99 c6.72-3.75,24.21-4.98,31.46-10.05c0.53-0.8,1.11-1.97,1.66-3.23c0.83-1.9,1.59-3.98,2.08-5.4c-2.03-2.39-3.77-5.09-5.44-7.74 l-5.5-8.74c-2.01-3-3.06-5.74-3.12-7.99c-0.03-1.06,0.15-2.02,0.54-2.86c0.41-0.88,1.04-1.62,1.89-2.2 c0.4-0.27,0.84-0.49,1.33-0.68c-0.36-4.74-0.49-10.72-0.26-15.72c0.12-1.19,0.35-2.37,0.68-3.56c1.41-5.02,4.93-9.06,9.29-11.84 c2.4-1.53,5.04-2.69,7.79-3.47c1.74-0.49-1.49-6.08,0.32-6.26c8.73-0.9,22.86,7.07,28.95,13.67c3.05,3.3,4.97,7.68,5.38,13.48 l-0.34,14.27v0c1.52,0.46,2.5,1.43,2.9,3c0.44,1.73-0.04,4.18-1.51,7.51l0,0c-0.03,0.06-0.06,0.12-0.09,0.18l-6.27,10.32 c-2.3,3.79-4.64,7.59-7.69,10.6c0.27,0.39,0.55,0.8,0.82,1.2c1.24,1.82,2.49,3.64,4.1,5.27C80.15,79.6,80.2,79.66,80.24,79.72 L80.24,79.72z M67.99,46.39c-0.45-0.3-0.58-0.92-0.27-1.37c0.3-0.45,0.92-0.58,1.37-0.27c0.54,0.36,1.48,0.56,2.47,0.54 c0.94-0.02,1.88-0.22,2.56-0.65c0.46-0.29,1.07-0.16,1.37,0.3c0.29,0.46,0.16,1.07-0.3,1.37c-1,0.64-2.32,0.94-3.59,0.96 C70.23,47.28,68.87,46.97,67.99,46.39L67.99,46.39z M46.74,56.49c4.88-1.88,9.77-3.04,14.68-3.17c4.9-0.13,9.81,0.79,14.71,3.05 l6.1-13.5l1.82-8.07c-15.74,2.48-27.51-9.21-44.15-2.34l1.18,10.9L46.74,56.49L46.74,56.49z M83.96,44.33L78.01,57.5 c-0.01,0.03-0.03,0.06-0.04,0.08c0.05,0.12,0.08,0.26,0.08,0.39h0c0.04,3.11-0.41,5.88-1.25,8.28c1.19-1.72,2.31-3.55,3.42-5.37 l6.19-10.2c1.15-2.63,1.58-4.4,1.31-5.43c-0.16-0.62-0.84-0.92-1.99-0.98c-0.25-0.01-0.5-0.01-0.75-0.01 c-0.28,0.01-0.57,0.03-0.87,0.05C84.06,44.33,84.01,44.33,83.96,44.33L83.96,44.33z M46.01,65.57c-0.68-2.21-1.09-4.72-1.17-7.55 c0-0.11,0.01-0.22,0.04-0.32l-6.13-14.21c-1,0.09-1.77,0.33-2.32,0.7c-0.36,0.24-0.62,0.55-0.79,0.92 c-0.19,0.41-0.28,0.9-0.26,1.47c0.05,1.67,0.92,3.86,2.62,6.38l0.02,0.04l0,0l5.5,8.74C44.32,63.02,45.15,64.31,46.01,65.57 L46.01,65.57z M61.46,55.5c-4.79,0.12-9.6,1.3-14.42,3.2c0.44,8.41,4.11,13.58,8.71,15.8c0.48,0.23,0.97,0.43,1.47,0.6 c1.29,0.37,2.7,0.58,4.23,0.58c0.77,0,1.5-0.04,2.2-0.13c1.33-0.24,2.64-0.69,3.87-1.33c4.64-2.43,8.25-7.71,8.34-15.57 C71.06,56.32,66.26,55.38,61.46,55.5L61.46,55.5z M47.92,46.39c-0.45-0.3-0.58-0.92-0.27-1.37c0.3-0.45,0.92-0.58,1.37-0.27 c0.56,0.37,1.5,0.58,2.51,0.58c0.95-0.01,1.93-0.21,2.68-0.64c0.47-0.27,1.08-0.11,1.35,0.36c0.27,0.47,0.11,1.08-0.36,1.35 c-1.07,0.62-2.4,0.9-3.67,0.91C50.15,47.3,48.8,46.97,47.92,46.39L47.92,46.39z M47.52,41.96c-0.45,0.32-1.06,0.21-1.38-0.23 c-0.32-0.45-0.21-1.06,0.23-1.38c1.47-1.04,2.98-1.58,4.53-1.59c1.54-0.01,3.09,0.51,4.63,1.58c0.45,0.31,0.56,0.93,0.25,1.38 c-0.31,0.45-0.93,0.56-1.38,0.25c-1.2-0.83-2.37-1.23-3.5-1.23C49.79,40.75,48.66,41.16,47.52,41.96L47.52,41.96z M68.94,41.96 c-0.45,0.32-1.06,0.21-1.38-0.23c-0.32-0.45-0.21-1.06,0.23-1.38c1.47-1.04,2.98-1.58,4.53-1.59c1.54-0.01,3.09,0.51,4.63,1.58 c0.45,0.31,0.56,0.93,0.25,1.38c-0.31,0.45-0.93,0.56-1.38,0.25c-1.2-0.83-2.37-1.23-3.5-1.23C71.2,40.75,70.07,41.16,68.94,41.96 L68.94,41.96z"/></g></svg>